<?xml version="1.0" encoding="UTF-8" standalone="no"?>
<!-- Created by diasvg.py -->
<svg width="15.427cm" height="1.406cm" viewBox="17.400 22.249 15.427 1.406"
 xmlns="http://www.w3.org/2000/svg"
 xmlns:xlink="http://www.w3.org/1999/xlink">
<!-- Layer: Background -->
<g id="Background">
<!-- BPMN - Task -->
<path stroke="#000000" fill="#FFFFFF" stroke-width="0.100"  d="M 17.880,22.350 C 18.259,22.350 20.157,22.350 20.537,22.350 C 20.917,22.350 20.917,22.350 20.917,22.550 C 20.917,22.750 20.917,23.150 20.917,23.350 C 20.917,23.550 20.917,23.550 20.537,23.550 C 20.157,23.550 18.259,23.550 17.880,23.550 C 17.500,23.550 17.500,23.550 17.500,23.350 C 17.500,23.150 17.500,22.750 17.500,22.550 C 17.500,22.350 17.500,22.350 17.880,22.350 z"/>
<path stroke="#000000" fill="none" stroke-width="0.010"  d="M 17.880,22.350 C 18.259,22.350 20.157,22.350 20.537,22.350 C 20.917,22.350 20.917,22.350 20.917,22.550 C 20.917,22.750 20.917,23.150 20.917,23.350 C 20.917,23.550 20.917,23.550 20.537,23.550 C 20.157,23.550 18.259,23.550 17.880,23.550 C 17.500,23.550 17.500,23.550 17.500,23.350 C 17.500,23.150 17.500,22.750 17.500,22.550 C 17.500,22.350 17.500,22.350 17.880,22.350 "/>
<line x1="17.880" y1="23.550" x2="20.537" y2="23.550" stroke="#000000" stroke-width="0.010" />
<line x1="20.917" y1="22.550" x2="20.917" y2="23.350" stroke="#000000" stroke-width="0.010" />
<line x1="17.500" y1="22.550" x2="17.500" y2="23.350" stroke="#000000" stroke-width="0.010" />
<line x1="17.880" y1="22.350" x2="20.537" y2="22.350" stroke="#000000" stroke-width="0.010" />
<!-- BPMN - Start-Event -->
<ellipse cx="18.053" cy="22.929" rx="0.213" ry="0.213" fill="#000000" stroke="#000000"  stroke-width="0.100" />
<ellipse cx="18.053" cy="22.929" rx="0.213" ry="0.213" fill="none" stroke="#000000"  stroke-width="0.010" />
<!-- BPMN - Start-Event -->
<ellipse cx="18.802" cy="22.932" rx="0.213" ry="0.213" fill="#000000" stroke="#000000"  stroke-width="0.100" />
<ellipse cx="18.802" cy="22.932" rx="0.213" ry="0.213" fill="none" stroke="#000000"  stroke-width="0.010" />
<!-- BPMN - Start-Event -->
<ellipse cx="20.368" cy="22.932" rx="0.213" ry="0.213" fill="#000000" stroke="#000000"  stroke-width="0.100" />
<ellipse cx="20.368" cy="22.932" rx="0.213" ry="0.213" fill="none" stroke="#000000"  stroke-width="0.010" />
<!-- BPMN - Start-Event -->
<ellipse cx="19.568" cy="22.932" rx="0.213" ry="0.213" fill="#000000" stroke="#000000"  stroke-width="0.100" />
<ellipse cx="19.568" cy="22.932" rx="0.213" ry="0.213" fill="none" stroke="#000000"  stroke-width="0.010" />
<!-- BPMN - Task -->
<path stroke="#000000" fill="#FFFFFF" stroke-width="0.100"  d="M 21.847,22.349 C 22.226,22.349 24.124,22.349 24.504,22.349 C 24.884,22.349 24.884,22.349 24.884,22.549 C 24.884,22.749 24.884,23.149 24.884,23.349 C 24.884,23.549 24.884,23.549 24.504,23.549 C 24.124,23.549 22.226,23.549 21.847,23.549 C 21.467,23.549 21.467,23.549 21.467,23.349 C 21.467,23.149 21.467,22.749 21.467,22.549 C 21.467,22.349 21.467,22.349 21.847,22.349 z"/>
<path stroke="#000000" fill="none" stroke-width="0.010"  d="M 21.847,22.349 C 22.226,22.349 24.124,22.349 24.504,22.349 C 24.884,22.349 24.884,22.349 24.884,22.549 C 24.884,22.749 24.884,23.149 24.884,23.349 C 24.884,23.549 24.884,23.549 24.504,23.549 C 24.124,23.549 22.226,23.549 21.847,23.549 C 21.467,23.549 21.467,23.549 21.467,23.349 C 21.467,23.149 21.467,22.749 21.467,22.549 C 21.467,22.349 21.467,22.349 21.847,22.349 "/>
<line x1="21.847" y1="23.549" x2="24.504" y2="23.549" stroke="#000000" stroke-width="0.010" />
<line x1="24.884" y1="22.549" x2="24.884" y2="23.349" stroke="#000000" stroke-width="0.010" />
<line x1="21.467" y1="22.549" x2="21.467" y2="23.349" stroke="#000000" stroke-width="0.010" />
<line x1="21.847" y1="22.349" x2="24.504" y2="22.349" stroke="#000000" stroke-width="0.010" />
<!-- BPMN - Start-Event -->
<ellipse cx="22.020" cy="22.928" rx="0.213" ry="0.213" fill="#000000" stroke="#000000"  stroke-width="0.100" />
<ellipse cx="22.020" cy="22.928" rx="0.213" ry="0.213" fill="none" stroke="#000000"  stroke-width="0.010" />
<!-- BPMN - Start-Event -->
<ellipse cx="22.769" cy="22.930" rx="0.213" ry="0.213" fill="#000000" stroke="#000000"  stroke-width="0.100" />
<ellipse cx="22.769" cy="22.930" rx="0.213" ry="0.213" fill="none" stroke="#000000"  stroke-width="0.010" />
<!-- BPMN - Start-Event -->
<ellipse cx="24.335" cy="22.930" rx="0.213" ry="0.213" fill="#000000" stroke="#000000"  stroke-width="0.100" />
<ellipse cx="24.335" cy="22.930" rx="0.213" ry="0.213" fill="none" stroke="#000000"  stroke-width="0.010" />
<!-- BPMN - Task -->
<path stroke="#000000" fill="#FFFFFF" stroke-width="0.100"  d="M 25.763,22.352 C 26.143,22.352 28.041,22.352 28.421,22.352 C 28.800,22.352 28.800,22.352 28.800,22.552 C 28.800,22.752 28.800,23.152 28.800,23.352 C 28.800,23.552 28.800,23.552 28.421,23.552 C 28.041,23.552 26.143,23.552 25.763,23.552 C 25.384,23.552 25.384,23.552 25.384,23.352 C 25.384,23.152 25.384,22.752 25.384,22.552 C 25.384,22.352 25.384,22.352 25.763,22.352 z"/>
<path stroke="#000000" fill="none" stroke-width="0.010"  d="M 25.763,22.352 C 26.143,22.352 28.041,22.352 28.421,22.352 C 28.800,22.352 28.800,22.352 28.800,22.552 C 28.800,22.752 28.800,23.152 28.800,23.352 C 28.800,23.552 28.800,23.552 28.421,23.552 C 28.041,23.552 26.143,23.552 25.763,23.552 C 25.384,23.552 25.384,23.552 25.384,23.352 C 25.384,23.152 25.384,22.752 25.384,22.552 C 25.384,22.352 25.384,22.352 25.763,22.352 "/>
<line x1="25.763" y1="23.552" x2="28.421" y2="23.552" stroke="#000000" stroke-width="0.010" />
<line x1="28.800" y1="22.552" x2="28.800" y2="23.352" stroke="#000000" stroke-width="0.010" />
<line x1="25.384" y1="22.552" x2="25.384" y2="23.352" stroke="#000000" stroke-width="0.010" />
<line x1="25.763" y1="22.352" x2="28.421" y2="22.352" stroke="#000000" stroke-width="0.010" />
<!-- BPMN - Start-Event -->
<ellipse cx="25.936" cy="22.931" rx="0.213" ry="0.213" fill="#000000" stroke="#000000"  stroke-width="0.100" />
<ellipse cx="25.936" cy="22.931" rx="0.213" ry="0.213" fill="none" stroke="#000000"  stroke-width="0.010" />
<!-- BPMN - Start-Event -->
<ellipse cx="26.685" cy="22.933" rx="0.213" ry="0.213" fill="#000000" stroke="#000000"  stroke-width="0.100" />
<ellipse cx="26.685" cy="22.933" rx="0.213" ry="0.213" fill="none" stroke="#000000"  stroke-width="0.010" />
<!-- BPMN - Task -->
<path stroke="#000000" fill="#FFFFFF" stroke-width="0.100"  d="M 29.690,22.355 C 30.069,22.355 31.968,22.355 32.347,22.355 C 32.727,22.355 32.727,22.355 32.727,22.555 C 32.727,22.755 32.727,23.155 32.727,23.355 C 32.727,23.555 32.727,23.555 32.347,23.555 C 31.968,23.555 30.069,23.555 29.690,23.555 C 29.310,23.555 29.310,23.555 29.310,23.355 C 29.310,23.155 29.310,22.755 29.310,22.555 C 29.310,22.355 29.310,22.355 29.690,22.355 z"/>
<path stroke="#000000" fill="none" stroke-width="0.010"  d="M 29.690,22.355 C 30.069,22.355 31.968,22.355 32.347,22.355 C 32.727,22.355 32.727,22.355 32.727,22.555 C 32.727,22.755 32.727,23.155 32.727,23.355 C 32.727,23.555 32.727,23.555 32.347,23.555 C 31.968,23.555 30.069,23.555 29.690,23.555 C 29.310,23.555 29.310,23.555 29.310,23.355 C 29.310,23.155 29.310,22.755 29.310,22.555 C 29.310,22.355 29.310,22.355 29.690,22.355 "/>
<line x1="29.690" y1="23.555" x2="32.347" y2="23.555" stroke="#000000" stroke-width="0.010" />
<line x1="32.727" y1="22.555" x2="32.727" y2="23.355" stroke="#000000" stroke-width="0.010" />
<line x1="29.310" y1="22.555" x2="29.310" y2="23.355" stroke="#000000" stroke-width="0.010" />
<line x1="29.690" y1="22.355" x2="32.347" y2="22.355" stroke="#000000" stroke-width="0.010" />
<!-- BPMN - Start-Event -->
<ellipse cx="32.179" cy="22.937" rx="0.213" ry="0.213" fill="#000000" stroke="#000000"  stroke-width="0.100" />
<ellipse cx="32.179" cy="22.937" rx="0.213" ry="0.213" fill="none" stroke="#000000"  stroke-width="0.010" />
</g>
</svg>